<svg
        width="100%"
        height="100%"
        viewBox="0 0 311 166"
        fill="none"
        xmlns="http://www.w3.org/2000/svg"
        preserveAspectRatio="none"
        >
<path
d="M17.0127 1.25049C32.4763 0.876362 58.5111 5.26209 88.8848 13.0034C119.251 20.7429 153.931 31.8297 186.673 44.8442C219.417 57.8596 250.212 72.7991 272.816 88.2388C284.119 95.9588 293.365 103.797 299.782 111.576C306.201 119.356 309.772 127.055 309.772 134.499C309.772 141.992 308.255 147.541 305.508 151.533C302.764 155.52 298.774 157.98 293.773 159.262C283.749 161.832 269.712 159.657 253.708 155.582C237.704 151.506 219.827 145.558 202.082 140.615C184.357 135.677 166.793 131.75 151.5 131.75C136.198 131.75 121.1 136.056 107.072 141.561C93.0566 147.061 80.0581 153.781 69.0254 158.594C63.5002 161.005 58.4643 162.94 54.0176 164.021C49.5679 165.102 45.7361 165.321 42.6064 164.329C39.4912 163.341 37.0394 161.143 35.3604 157.317C33.6766 153.48 32.7725 148.008 32.7725 140.499C32.7725 125.411 28.9493 109.138 23.9375 93.23C18.9273 77.3274 12.7151 61.7511 7.9375 48.0923C5.54682 41.2575 3.51453 34.8995 2.16406 29.2075C0.813051 23.5132 0.148366 18.5003 0.484375 14.3511C0.820144 10.2057 2.15179 6.94473 4.77148 4.71533C7.23122 2.62206 10.8618 1.40775 15.9658 1.26416L17.0068 1.25049H17.0127Z"
stroke="#eeeeee"

        />
        </svg>
